<svg xmlns="http://www.w3.org/2000/svg" xmlns:xlink="http://www.w3.org/1999/xlink" width="2060" zoomAndPan="magnify" viewBox="0 0 1544.88 464.999988" height="620" preserveAspectRatio="xMidYMid meet" version="1.0"><defs><g/><clipPath id="fc51a58c92"><path d="M 434 3 L 1111 3 L 1111 233.25 L 434 233.25 Z M 434 3 " clip-rule="nonzero"/></clipPath><clipPath id="992b1c2398"><rect x="0" width="1259" y="0" height="133"/></clipPath><clipPath id="65ec08d7bc"><rect x="0" width="982" y="0" height="63"/></clipPath></defs><g clip-path="url(#fc51a58c92)"><path fill="#000000" d="M 1110.160156 233.050781 C 1060.511719 220.847656 1001.570312 158.535156 966.992188 126.445312 C 950.640625 111.28125 933.613281 97.269531 915.589844 77.1875 C 907.046875 67.664062 875.664062 98.242188 870.464844 93.175781 C 849.195312 72.433594 813.226562 38.742188 792.433594 19.984375 C 774.179688 3.503906 778.023438 0 765.382812 6.402344 C 750.621094 13.871094 725.730469 37.34375 714.613281 44.640625 C 695.523438 57.164062 645.578125 106.347656 622.074219 124.734375 C 614 131.054688 609.148438 126.328125 601.757812 126.390625 C 587.578125 126.503906 581.332031 120.40625 570.964844 130.003906 C 566.460938 134.171875 560.664062 139.503906 557.375 142.957031 C 526.535156 175.238281 473.300781 210.214844 434.449219 231.789062 C 477.804688 220.4375 527.765625 194.960938 563.5 165.128906 C 581.894531 149.769531 582.5625 182.125 634.5 203.386719 C 679.246094 221.707031 605.289062 179.75 613.597656 166.386719 C 615.953125 162.59375 624.335938 167.546875 627.886719 167.148438 C 631.445312 166.757812 625.730469 158.546875 629.648438 159.742188 C 638.289062 162.367188 662.429688 172.617188 659.015625 168.742188 C 656.414062 165.777344 644.800781 148.601562 653.703125 136.84375 C 663.550781 123.84375 699.128906 93.152344 712.285156 86.398438 C 717.964844 83.484375 712.332031 101.667969 717.125 102.285156 C 723.234375 103.066406 734.460938 85.050781 739.25 89.859375 C 745.867188 96.5 737.3125 107.703125 741.867188 116.785156 C 755.179688 143.28125 752.40625 154.699219 758.429688 124.050781 L 763.433594 98.621094 L 769.214844 69.226562 L 775.3125 58.628906 C 777.402344 55.007812 778.183594 56.699219 791.59375 60.847656 C 797.84375 62.792969 799.210938 69.347656 803.386719 74.632812 C 808.214844 80.75 816.570312 105.9375 821.105469 109.691406 C 827.226562 114.75 828.886719 93.695312 835.136719 98.136719 C 862.1875 117.378906 879.253906 140.617188 879.34375 140.730469 C 891.226562 154.878906 914.976562 175.15625 920.699219 174.875 C 920.699219 168.980469 907.195312 153.753906 902.867188 139.308594 C 900.761719 132.242188 902.050781 125.742188 902.554688 120.203125 C 903.042969 114.699219 911.886719 125.089844 917.753906 125.300781 C 921.257812 125.433594 911.617188 98.835938 916.996094 103.269531 C 935.847656 118.789062 974.6875 158.023438 997.5 175.867188 C 1029.535156 200.90625 1050.917969 223.484375 1083.316406 230.367188 C 1091.570312 232.113281 1100.433594 233.050781 1110.160156 233.050781 " fill-opacity="1" fill-rule="evenodd"/></g><g transform="matrix(1, 0, 0, 1, 147, 251)"><g clip-path="url(#992b1c2398)"><g fill="#000000" fill-opacity="1"><g transform="translate(1.14407, 102.324721)"><g><path d="M 35.75 -1.203125 L 36.34375 -1.203125 L 36.34375 0 L 19.3125 0 L 19.3125 -1.203125 L 19.90625 -1.203125 C 20.550781 -1.203125 21.113281 -1.441406 21.59375 -1.921875 C 22.070312 -2.398438 22.488281 -2.957031 22.84375 -3.59375 C 23.207031 -4.238281 23.46875 -4.941406 23.625 -5.703125 C 23.789062 -6.460938 23.875 -7.160156 23.875 -7.796875 L 23.875 -74.734375 L 9.953125 -74.734375 C 8.671875 -74.734375 7.550781 -74.453125 6.59375 -73.890625 C 5.632812 -73.328125 4.832031 -72.625 4.1875 -71.78125 C 3.550781 -70.945312 3.070312 -70.03125 2.75 -69.03125 C 2.4375 -68.03125 2.28125 -67.050781 2.28125 -66.09375 L 1.078125 -66.09375 L 1.078125 -79.171875 L 54.9375 -79.171875 L 54.9375 -66.09375 L 53.734375 -66.09375 C 53.734375 -67.050781 53.570312 -68.03125 53.25 -69.03125 C 52.9375 -70.03125 52.457031 -70.945312 51.8125 -71.78125 C 51.175781 -72.625 50.378906 -73.328125 49.421875 -73.890625 C 48.460938 -74.453125 47.34375 -74.734375 46.0625 -74.734375 L 31.90625 -74.734375 L 31.90625 -7.796875 C 31.90625 -7.160156 31.984375 -6.460938 32.140625 -5.703125 C 32.304688 -4.941406 32.566406 -4.238281 32.921875 -3.59375 C 33.285156 -2.957031 33.6875 -2.398438 34.125 -1.921875 C 34.5625 -1.441406 35.101562 -1.203125 35.75 -1.203125 Z M 35.75 -1.203125 "/></g></g></g><g fill="#000000" fill-opacity="1"><g transform="translate(65.437341, 102.324721)"><g><path d="M 21.71875 -1.203125 L 22.3125 -1.203125 L 22.3125 0 L 5.390625 0 L 5.390625 -1.203125 L 6 -1.203125 C 6.5625 -1.203125 7.082031 -1.441406 7.5625 -1.921875 C 8.039062 -2.398438 8.457031 -2.957031 8.8125 -3.59375 C 9.175781 -4.238281 9.4375 -4.941406 9.59375 -5.703125 C 9.757812 -6.460938 9.84375 -7.160156 9.84375 -7.796875 L 9.84375 -71.734375 C 9.84375 -72.296875 9.757812 -72.9375 9.59375 -73.65625 C 9.4375 -74.375 9.175781 -75.050781 8.8125 -75.6875 C 8.457031 -76.332031 8.039062 -76.875 7.5625 -77.3125 C 7.082031 -77.75 6.5625 -77.96875 6 -77.96875 L 5.390625 -77.96875 L 5.390625 -79.171875 L 26.265625 -79.171875 C 34.265625 -79.171875 40.441406 -77.609375 44.796875 -74.484375 C 49.160156 -71.367188 51.34375 -66.773438 51.34375 -60.703125 C 51.34375 -57.660156 50.84375 -55 49.84375 -52.71875 C 48.84375 -50.4375 47.5 -48.472656 45.8125 -46.828125 C 44.132812 -45.191406 42.15625 -43.875 39.875 -42.875 C 37.601562 -41.882812 35.1875 -41.148438 32.625 -40.671875 L 41.265625 -27.46875 C 43.335938 -24.269531 45.453125 -21.128906 47.609375 -18.046875 C 49.773438 -14.972656 51.898438 -11.796875 53.984375 -8.515625 C 54.535156 -7.710938 55.148438 -6.867188 55.828125 -5.984375 C 56.515625 -5.109375 57.238281 -4.3125 58 -3.59375 C 58.757812 -2.875 59.554688 -2.296875 60.390625 -1.859375 C 61.234375 -1.421875 62.09375 -1.203125 62.96875 -1.203125 L 62.96875 0 L 57.8125 0 C 54.613281 0 51.992188 -0.773438 49.953125 -2.328125 C 47.921875 -3.890625 46.222656 -5.710938 44.859375 -7.796875 C 41.265625 -13.078125 37.6875 -18.4375 34.125 -23.875 C 30.5625 -29.3125 27.023438 -34.664062 23.515625 -39.9375 C 22.628906 -40.019531 21.6875 -40.117188 20.6875 -40.234375 C 19.6875 -40.359375 18.75 -40.503906 17.875 -40.671875 L 17.875 -7.796875 C 17.875 -7.160156 17.953125 -6.460938 18.109375 -5.703125 C 18.273438 -4.941406 18.535156 -4.238281 18.890625 -3.59375 C 19.253906 -2.957031 19.65625 -2.398438 20.09375 -1.921875 C 20.53125 -1.441406 21.070312 -1.203125 21.71875 -1.203125 Z M 17.875 -75.09375 L 17.875 -44.625 L 18.46875 -44.625 C 19.113281 -44.539062 20.132812 -44.476562 21.53125 -44.4375 C 22.925781 -44.394531 24.664062 -44.375 26.75 -44.375 C 28.425781 -44.375 30.203125 -44.632812 32.078125 -45.15625 C 33.960938 -45.675781 35.722656 -46.554688 37.359375 -47.796875 C 39.003906 -49.035156 40.363281 -50.65625 41.4375 -52.65625 C 42.519531 -54.65625 43.0625 -57.175781 43.0625 -60.21875 C 43.0625 -63.257812 42.476562 -65.738281 41.3125 -67.65625 C 40.15625 -69.570312 38.554688 -71.085938 36.515625 -72.203125 C 34.484375 -73.328125 32.023438 -74.085938 29.140625 -74.484375 C 26.265625 -74.890625 23.109375 -75.09375 19.671875 -75.09375 Z M 17.875 -75.09375 "/></g></g></g><g fill="#000000" fill-opacity="1"><g transform="translate(138.367002, 102.324721)"><g><path d="M 51.21875 -1.203125 L 51.8125 -1.203125 C 53.738281 -1.203125 54.703125 -2.082031 54.703125 -3.84375 C 54.703125 -4.476562 54.582031 -5.15625 54.34375 -5.875 L 43.546875 -35.03125 L 22.546875 -35.03125 L 12.109375 -6.359375 C 11.867188 -5.710938 11.75 -5.113281 11.75 -4.5625 C 11.75 -3.519531 12.03125 -2.695312 12.59375 -2.09375 C 13.15625 -1.5 13.753906 -1.203125 14.390625 -1.203125 L 15 -1.203125 L 15 0 L 1.671875 0 L 1.671875 -1.203125 L 2.28125 -1.203125 C 3.320312 -1.203125 4.34375 -1.820312 5.34375 -3.0625 C 6.34375 -4.300781 7.160156 -5.757812 7.796875 -7.4375 L 35.265625 -80.609375 L 62.140625 -8.15625 C 62.691406 -6.550781 63.46875 -4.988281 64.46875 -3.46875 C 65.46875 -1.957031 66.769531 -1.203125 68.375 -1.203125 L 68.96875 -1.203125 L 68.96875 0 L 51.21875 0 Z M 23.75 -39.109375 L 42.21875 -39.109375 L 32.984375 -64.171875 Z M 23.75 -39.109375 "/></g></g></g><g fill="#000000" fill-opacity="1"><g transform="translate(217.294158, 102.324721)"><g><path d="M 5.875 -79.171875 L 23.03125 -79.171875 L 23.03125 -77.96875 L 22.4375 -77.96875 C 21.875 -77.96875 21.351562 -77.75 20.875 -77.3125 C 20.394531 -76.875 19.992188 -76.351562 19.671875 -75.75 C 19.347656 -75.144531 19.085938 -74.460938 18.890625 -73.703125 C 18.691406 -72.953125 18.59375 -72.296875 18.59375 -71.734375 L 18.59375 -7.796875 C 18.59375 -7.160156 18.671875 -6.460938 18.828125 -5.703125 C 18.992188 -4.941406 19.253906 -4.238281 19.609375 -3.59375 C 19.972656 -2.957031 20.375 -2.398438 20.8125 -1.921875 C 21.25 -1.441406 21.789062 -1.203125 22.4375 -1.203125 L 23.03125 -1.203125 L 23.03125 0 L 5.875 0 L 5.875 -1.203125 L 6.484375 -1.203125 C 7.117188 -1.203125 7.675781 -1.421875 8.15625 -1.859375 C 8.632812 -2.296875 9.050781 -2.851562 9.40625 -3.53125 C 9.769531 -4.21875 10.03125 -4.941406 10.1875 -5.703125 C 10.351562 -6.460938 10.4375 -7.160156 10.4375 -7.796875 L 10.4375 -71.734375 C 10.4375 -72.296875 10.351562 -72.9375 10.1875 -73.65625 C 10.03125 -74.375 9.769531 -75.050781 9.40625 -75.6875 C 9.050781 -76.332031 8.632812 -76.875 8.15625 -77.3125 C 7.675781 -77.75 7.117188 -77.96875 6.484375 -77.96875 L 5.875 -77.96875 Z M 5.875 -79.171875 "/></g></g></g><g fill="#000000" fill-opacity="1"><g transform="translate(254.598679, 102.324721)"><g><path d="M 5.390625 -1.203125 L 6 -1.203125 C 6.632812 -1.203125 7.191406 -1.421875 7.671875 -1.859375 C 8.148438 -2.296875 8.566406 -2.832031 8.921875 -3.46875 C 9.285156 -4.113281 9.566406 -4.796875 9.765625 -5.515625 C 9.972656 -6.234375 10.078125 -6.914062 10.078125 -7.5625 L 10.078125 -71.734375 C 10.078125 -72.296875 9.972656 -72.9375 9.765625 -73.65625 C 9.566406 -74.375 9.285156 -75.050781 8.921875 -75.6875 C 8.566406 -76.332031 8.148438 -76.875 7.671875 -77.3125 C 7.191406 -77.75 6.632812 -77.96875 6 -77.96875 L 5.390625 -77.96875 L 5.390625 -79.171875 L 22.671875 -79.171875 L 22.671875 -77.96875 L 22.078125 -77.96875 C 21.429688 -77.96875 20.867188 -77.75 20.390625 -77.3125 C 19.910156 -76.875 19.507812 -76.332031 19.1875 -75.6875 C 18.875 -75.050781 18.613281 -74.375 18.40625 -73.65625 C 18.207031 -72.9375 18.109375 -72.296875 18.109375 -71.734375 L 18.109375 -4.4375 L 44.375 -4.4375 C 45.894531 -4.4375 47.210938 -4.796875 48.328125 -5.515625 C 49.453125 -6.234375 50.394531 -7.132812 51.15625 -8.21875 C 51.914062 -9.300781 52.472656 -10.460938 52.828125 -11.703125 C 53.191406 -12.941406 53.375 -14.078125 53.375 -15.109375 L 54.578125 -15.109375 L 54.578125 0 L 5.390625 0 Z M 5.390625 -1.203125 "/></g></g></g><g fill="#000000" fill-opacity="1"><g transform="translate(318.532103, 102.324721)"><g/></g></g><g fill="#000000" fill-opacity="1"><g transform="translate(357.875791, 102.324721)"><g><path d="M 47.625 -76.046875 C 41.707031 -76.046875 36.566406 -74.984375 32.203125 -72.859375 C 27.847656 -70.742188 24.226562 -67.988281 21.34375 -64.59375 C 18.46875 -61.195312 16.328125 -57.378906 14.921875 -53.140625 C 13.523438 -48.898438 12.828125 -44.703125 12.828125 -40.546875 C 12.828125 -35.828125 13.75 -31.207031 15.59375 -26.6875 C 17.4375 -22.164062 19.972656 -18.164062 23.203125 -14.6875 C 26.441406 -11.207031 30.222656 -8.410156 34.546875 -6.296875 C 38.867188 -4.179688 43.546875 -3.125 48.578125 -3.125 C 50.015625 -3.125 51.710938 -3.28125 53.671875 -3.59375 C 55.640625 -3.914062 57.582031 -4.535156 59.5 -5.453125 C 61.414062 -6.378906 63.191406 -7.679688 64.828125 -9.359375 C 66.472656 -11.035156 67.734375 -13.234375 68.609375 -15.953125 L 69.8125 -15.953125 L 69.8125 -2.640625 C 68.613281 -2.640625 67.351562 -2.476562 66.03125 -2.15625 C 64.71875 -1.832031 63.257812 -1.472656 61.65625 -1.078125 C 59.570312 -0.515625 57.269531 0.00390625 54.75 0.484375 C 52.238281 0.960938 49.582031 1.203125 46.78125 1.203125 C 39.820312 1.203125 33.703125 0.00390625 28.421875 -2.390625 C 23.148438 -4.796875 18.753906 -7.914062 15.234375 -11.75 C 11.710938 -15.59375 9.070312 -19.929688 7.3125 -24.765625 C 5.550781 -29.609375 4.671875 -34.507812 4.671875 -39.46875 C 4.671875 -44.425781 5.550781 -49.34375 7.3125 -54.21875 C 9.070312 -59.09375 11.75 -63.46875 15.34375 -67.34375 C 18.945312 -71.226562 23.46875 -74.367188 28.90625 -76.765625 C 34.34375 -79.171875 40.738281 -80.375 48.09375 -80.375 C 50.738281 -80.375 53.117188 -80.128906 55.234375 -79.640625 C 57.359375 -79.160156 59.257812 -78.679688 60.9375 -78.203125 C 62.132812 -77.804688 63.234375 -77.507812 64.234375 -77.3125 C 65.234375 -77.113281 66.210938 -77.015625 67.171875 -77.015625 L 67.171875 -63.6875 L 65.96875 -63.6875 C 65.488281 -66.164062 64.609375 -68.222656 63.328125 -69.859375 C 62.054688 -71.503906 60.5625 -72.765625 58.84375 -73.640625 C 57.125 -74.523438 55.28125 -75.144531 53.3125 -75.5 C 51.351562 -75.863281 49.457031 -76.046875 47.625 -76.046875 Z M 47.625 -76.046875 "/></g></g></g><g fill="#000000" fill-opacity="1"><g transform="translate(435.36347, 102.324721)"><g><path d="M 45.828125 -80.375 C 52.054688 -80.375 57.648438 -79.269531 62.609375 -77.0625 C 67.566406 -74.863281 71.785156 -71.90625 75.265625 -68.1875 C 78.742188 -64.46875 81.421875 -60.148438 83.296875 -55.234375 C 85.179688 -50.316406 86.125 -45.179688 86.125 -39.828125 C 86.125 -33.828125 85.023438 -28.304688 82.828125 -23.265625 C 80.628906 -18.234375 77.609375 -13.914062 73.765625 -10.3125 C 69.929688 -6.71875 65.472656 -3.898438 60.390625 -1.859375 C 55.316406 0.179688 49.898438 1.203125 44.140625 1.203125 C 37.984375 1.203125 32.445312 0.0820312 27.53125 -2.15625 C 22.613281 -4.394531 18.453125 -7.351562 15.046875 -11.03125 C 11.648438 -14.707031 9.03125 -18.945312 7.1875 -23.75 C 5.351562 -28.550781 4.4375 -33.550781 4.4375 -38.75 C 4.4375 -43.863281 5.351562 -48.921875 7.1875 -53.921875 C 9.03125 -58.921875 11.726562 -63.378906 15.28125 -67.296875 C 18.84375 -71.210938 23.179688 -74.367188 28.296875 -76.765625 C 33.421875 -79.171875 39.265625 -80.375 45.828125 -80.375 Z M 45.703125 -3 C 51.054688 -3.238281 55.753906 -4.457031 59.796875 -6.65625 C 63.835938 -8.851562 67.21875 -11.648438 69.9375 -15.046875 C 72.65625 -18.453125 74.671875 -22.191406 75.984375 -26.265625 C 77.304688 -30.347656 77.96875 -34.390625 77.96875 -38.390625 C 77.96875 -42.785156 77.164062 -47.222656 75.5625 -51.703125 C 73.96875 -56.179688 71.691406 -60.238281 68.734375 -63.875 C 65.773438 -67.507812 62.234375 -70.46875 58.109375 -72.75 C 53.992188 -75.03125 49.378906 -76.171875 44.265625 -76.171875 C 39.304688 -76.171875 34.863281 -75.070312 30.9375 -72.875 C 27.019531 -70.675781 23.679688 -67.851562 20.921875 -64.40625 C 18.171875 -60.96875 16.070312 -57.128906 14.625 -52.890625 C 13.1875 -48.660156 12.46875 -44.503906 12.46875 -40.421875 C 12.46875 -36.023438 13.304688 -31.609375 14.984375 -27.171875 C 16.671875 -22.734375 18.992188 -18.710938 21.953125 -15.109375 C 24.910156 -11.515625 28.40625 -8.597656 32.4375 -6.359375 C 36.476562 -4.117188 40.898438 -3 45.703125 -3 Z M 45.703125 -3 "/></g></g></g><g fill="#000000" fill-opacity="1"><g transform="translate(534.802088, 102.324721)"><g><path d="M 18 -1.203125 L 18.59375 -1.203125 L 18.59375 0 L 5.28125 0 L 5.28125 -1.203125 L 5.875 -1.203125 C 6.4375 -1.203125 6.976562 -1.441406 7.5 -1.921875 C 8.019531 -2.398438 8.4375 -2.957031 8.75 -3.59375 C 9.070312 -4.238281 9.332031 -4.941406 9.53125 -5.703125 C 9.738281 -6.460938 9.84375 -7.160156 9.84375 -7.796875 L 9.84375 -71.734375 C 9.84375 -72.296875 9.78125 -72.9375 9.65625 -73.65625 C 9.53125 -74.375 9.304688 -75.050781 8.984375 -75.6875 C 8.671875 -76.332031 8.234375 -76.875 7.671875 -77.3125 C 7.117188 -77.75 6.441406 -77.96875 5.640625 -77.96875 L 5.03125 -77.96875 L 5.03125 -79.171875 L 17.15625 -79.171875 L 60.703125 -10.5625 L 60.703125 -71.734375 C 60.703125 -72.296875 60.597656 -72.9375 60.390625 -73.65625 C 60.191406 -74.375 59.910156 -75.050781 59.546875 -75.6875 C 59.191406 -76.332031 58.773438 -76.875 58.296875 -77.3125 C 57.816406 -77.75 57.257812 -77.96875 56.625 -77.96875 L 56.015625 -77.96875 L 56.015625 -79.171875 L 69.453125 -79.171875 L 69.453125 -77.96875 L 68.859375 -77.96875 C 68.210938 -77.96875 67.648438 -77.75 67.171875 -77.3125 C 66.691406 -76.875 66.269531 -76.332031 65.90625 -75.6875 C 65.550781 -75.050781 65.289062 -74.375 65.125 -73.65625 C 64.96875 -72.9375 64.890625 -72.296875 64.890625 -71.734375 L 64.890625 0 L 57.453125 0 L 14.03125 -68.859375 L 14.03125 -7.796875 C 14.03125 -7.160156 14.109375 -6.460938 14.265625 -5.703125 C 14.429688 -4.941406 14.691406 -4.238281 15.046875 -3.59375 C 15.410156 -2.957031 15.832031 -2.398438 16.3125 -1.921875 C 16.789062 -1.441406 17.351562 -1.203125 18 -1.203125 Z M 18 -1.203125 "/></g></g></g><g fill="#000000" fill-opacity="1"><g transform="translate(618.287324, 102.324721)"><g><path d="M 53.984375 -21.234375 C 53.984375 -17.234375 53.179688 -13.8125 51.578125 -10.96875 C 49.984375 -8.132812 47.925781 -5.835938 45.40625 -4.078125 C 42.882812 -2.316406 40.039062 -1.035156 36.875 -0.234375 C 33.71875 0.554688 30.582031 0.953125 27.46875 0.953125 C 24.269531 0.953125 21.507812 0.632812 19.1875 0 C 16.875 -0.632812 14.753906 -1.234375 12.828125 -1.796875 C 11.554688 -2.203125 10.398438 -2.539062 9.359375 -2.8125 C 8.316406 -3.09375 7.273438 -3.234375 6.234375 -3.234375 L 6.234375 -16.90625 L 7.4375 -16.90625 C 7.4375 -13.875 8.210938 -11.457031 9.765625 -9.65625 C 11.328125 -7.851562 13.148438 -6.472656 15.234375 -5.515625 C 17.316406 -4.554688 19.394531 -3.9375 21.46875 -3.65625 C 23.550781 -3.375 25.070312 -3.234375 26.03125 -3.234375 C 29.46875 -3.234375 32.425781 -3.734375 34.90625 -4.734375 C 37.382812 -5.734375 39.421875 -7.050781 41.015625 -8.6875 C 42.617188 -10.332031 43.800781 -12.15625 44.5625 -14.15625 C 45.320312 -16.15625 45.703125 -18.191406 45.703125 -20.265625 C 45.703125 -22.910156 45.140625 -25.128906 44.015625 -26.921875 C 42.898438 -28.722656 41.441406 -30.300781 39.640625 -31.65625 C 37.847656 -33.019531 35.789062 -34.179688 33.46875 -35.140625 C 31.144531 -36.097656 28.785156 -37.0625 26.390625 -38.03125 C 23.671875 -39.0625 20.988281 -40.132812 18.34375 -41.25 C 15.707031 -42.375 13.347656 -43.753906 11.265625 -45.390625 C 9.191406 -47.035156 7.515625 -49 6.234375 -51.28125 C 4.953125 -53.5625 4.3125 -56.378906 4.3125 -59.734375 C 4.3125 -63.253906 4.988281 -66.3125 6.34375 -68.90625 C 7.707031 -71.507812 9.53125 -73.648438 11.8125 -75.328125 C 14.09375 -77.003906 16.691406 -78.265625 19.609375 -79.109375 C 22.523438 -79.953125 25.503906 -80.375 28.546875 -80.375 C 30.628906 -80.375 32.585938 -80.234375 34.421875 -79.953125 C 36.265625 -79.671875 38.023438 -79.328125 39.703125 -78.921875 C 41.066406 -78.609375 42.382812 -78.347656 43.65625 -78.140625 C 44.9375 -77.941406 46.175781 -77.84375 47.375 -77.84375 L 47.375 -65.5 L 46.1875 -65.5 C 46.019531 -69.65625 44.375 -72.472656 41.25 -73.953125 C 38.132812 -75.429688 33.820312 -76.171875 28.3125 -76.171875 C 25.113281 -76.171875 22.492188 -75.628906 20.453125 -74.546875 C 18.410156 -73.472656 16.789062 -72.15625 15.59375 -70.59375 C 14.394531 -69.03125 13.570312 -67.347656 13.125 -65.546875 C 12.6875 -63.753906 12.46875 -62.175781 12.46875 -60.8125 C 12.46875 -58.570312 12.96875 -56.648438 13.96875 -55.046875 C 14.96875 -53.453125 16.304688 -52.054688 17.984375 -50.859375 C 19.671875 -49.660156 21.613281 -48.582031 23.8125 -47.625 C 26.007812 -46.664062 28.304688 -45.742188 30.703125 -44.859375 C 33.421875 -43.816406 36.179688 -42.695312 38.984375 -41.5 C 41.785156 -40.300781 44.285156 -38.820312 46.484375 -37.0625 C 48.679688 -35.300781 50.476562 -33.140625 51.875 -30.578125 C 53.28125 -28.023438 53.984375 -24.910156 53.984375 -21.234375 Z M 53.984375 -21.234375 "/></g></g></g><g fill="#000000" fill-opacity="1"><g transform="translate(680.781282, 102.324721)"><g><path d="M 35.75 -1.203125 L 36.34375 -1.203125 L 36.34375 0 L 19.3125 0 L 19.3125 -1.203125 L 19.90625 -1.203125 C 20.550781 -1.203125 21.113281 -1.441406 21.59375 -1.921875 C 22.070312 -2.398438 22.488281 -2.957031 22.84375 -3.59375 C 23.207031 -4.238281 23.46875 -4.941406 23.625 -5.703125 C 23.789062 -6.460938 23.875 -7.160156 23.875 -7.796875 L 23.875 -74.734375 L 9.953125 -74.734375 C 8.671875 -74.734375 7.550781 -74.453125 6.59375 -73.890625 C 5.632812 -73.328125 4.832031 -72.625 4.1875 -71.78125 C 3.550781 -70.945312 3.070312 -70.03125 2.75 -69.03125 C 2.4375 -68.03125 2.28125 -67.050781 2.28125 -66.09375 L 1.078125 -66.09375 L 1.078125 -79.171875 L 54.9375 -79.171875 L 54.9375 -66.09375 L 53.734375 -66.09375 C 53.734375 -67.050781 53.570312 -68.03125 53.25 -69.03125 C 52.9375 -70.03125 52.457031 -70.945312 51.8125 -71.78125 C 51.175781 -72.625 50.378906 -73.328125 49.421875 -73.890625 C 48.460938 -74.453125 47.34375 -74.734375 46.0625 -74.734375 L 31.90625 -74.734375 L 31.90625 -7.796875 C 31.90625 -7.160156 31.984375 -6.460938 32.140625 -5.703125 C 32.304688 -4.941406 32.566406 -4.238281 32.921875 -3.59375 C 33.285156 -2.957031 33.6875 -2.398438 34.125 -1.921875 C 34.5625 -1.441406 35.101562 -1.203125 35.75 -1.203125 Z M 35.75 -1.203125 "/></g></g></g><g fill="#000000" fill-opacity="1"><g transform="translate(745.074541, 102.324721)"><g><path d="M 21.71875 -1.203125 L 22.3125 -1.203125 L 22.3125 0 L 5.390625 0 L 5.390625 -1.203125 L 6 -1.203125 C 6.5625 -1.203125 7.082031 -1.441406 7.5625 -1.921875 C 8.039062 -2.398438 8.457031 -2.957031 8.8125 -3.59375 C 9.175781 -4.238281 9.4375 -4.941406 9.59375 -5.703125 C 9.757812 -6.460938 9.84375 -7.160156 9.84375 -7.796875 L 9.84375 -71.734375 C 9.84375 -72.296875 9.757812 -72.9375 9.59375 -73.65625 C 9.4375 -74.375 9.175781 -75.050781 8.8125 -75.6875 C 8.457031 -76.332031 8.039062 -76.875 7.5625 -77.3125 C 7.082031 -77.75 6.5625 -77.96875 6 -77.96875 L 5.390625 -77.96875 L 5.390625 -79.171875 L 26.265625 -79.171875 C 34.265625 -79.171875 40.441406 -77.609375 44.796875 -74.484375 C 49.160156 -71.367188 51.34375 -66.773438 51.34375 -60.703125 C 51.34375 -57.660156 50.84375 -55 49.84375 -52.71875 C 48.84375 -50.4375 47.5 -48.472656 45.8125 -46.828125 C 44.132812 -45.191406 42.15625 -43.875 39.875 -42.875 C 37.601562 -41.882812 35.1875 -41.148438 32.625 -40.671875 L 41.265625 -27.46875 C 43.335938 -24.269531 45.453125 -21.128906 47.609375 -18.046875 C 49.773438 -14.972656 51.898438 -11.796875 53.984375 -8.515625 C 54.535156 -7.710938 55.148438 -6.867188 55.828125 -5.984375 C 56.515625 -5.109375 57.238281 -4.3125 58 -3.59375 C 58.757812 -2.875 59.554688 -2.296875 60.390625 -1.859375 C 61.234375 -1.421875 62.09375 -1.203125 62.96875 -1.203125 L 62.96875 0 L 57.8125 0 C 54.613281 0 51.992188 -0.773438 49.953125 -2.328125 C 47.921875 -3.890625 46.222656 -5.710938 44.859375 -7.796875 C 41.265625 -13.078125 37.6875 -18.4375 34.125 -23.875 C 30.5625 -29.3125 27.023438 -34.664062 23.515625 -39.9375 C 22.628906 -40.019531 21.6875 -40.117188 20.6875 -40.234375 C 19.6875 -40.359375 18.75 -40.503906 17.875 -40.671875 L 17.875 -7.796875 C 17.875 -7.160156 17.953125 -6.460938 18.109375 -5.703125 C 18.273438 -4.941406 18.535156 -4.238281 18.890625 -3.59375 C 19.253906 -2.957031 19.65625 -2.398438 20.09375 -1.921875 C 20.53125 -1.441406 21.070312 -1.203125 21.71875 -1.203125 Z M 17.875 -75.09375 L 17.875 -44.625 L 18.46875 -44.625 C 19.113281 -44.539062 20.132812 -44.476562 21.53125 -44.4375 C 22.925781 -44.394531 24.664062 -44.375 26.75 -44.375 C 28.425781 -44.375 30.203125 -44.632812 32.078125 -45.15625 C 33.960938 -45.675781 35.722656 -46.554688 37.359375 -47.796875 C 39.003906 -49.035156 40.363281 -50.65625 41.4375 -52.65625 C 42.519531 -54.65625 43.0625 -57.175781 43.0625 -60.21875 C 43.0625 -63.257812 42.476562 -65.738281 41.3125 -67.65625 C 40.15625 -69.570312 38.554688 -71.085938 36.515625 -72.203125 C 34.484375 -73.328125 32.023438 -74.085938 29.140625 -74.484375 C 26.265625 -74.890625 23.109375 -75.09375 19.671875 -75.09375 Z M 17.875 -75.09375 "/></g></g></g><g fill="#000000" fill-opacity="1"><g transform="translate(818.004201, 102.324721)"><g><path d="M 5.390625 -79.171875 L 22.4375 -79.171875 L 22.4375 -77.96875 L 21.828125 -77.96875 C 21.191406 -77.96875 20.632812 -77.75 20.15625 -77.3125 C 19.675781 -76.875 19.253906 -76.332031 18.890625 -75.6875 C 18.535156 -75.050781 18.273438 -74.375 18.109375 -73.65625 C 17.953125 -72.9375 17.875 -72.296875 17.875 -71.734375 L 17.875 -24.34375 C 17.875 -21.226562 18.191406 -18.347656 18.828125 -15.703125 C 19.472656 -13.066406 20.550781 -10.789062 22.0625 -8.875 C 23.582031 -6.957031 25.582031 -5.457031 28.0625 -4.375 C 30.539062 -3.300781 33.582031 -2.765625 37.1875 -2.765625 C 41.1875 -2.765625 44.382812 -3.398438 46.78125 -4.671875 C 49.175781 -5.953125 51.015625 -7.613281 52.296875 -9.65625 C 53.578125 -11.695312 54.414062 -13.992188 54.8125 -16.546875 C 55.21875 -19.109375 55.421875 -21.628906 55.421875 -24.109375 L 55.421875 -71.734375 C 55.421875 -72.296875 55.335938 -72.9375 55.171875 -73.65625 C 55.015625 -74.375 54.753906 -75.050781 54.390625 -75.6875 C 54.035156 -76.332031 53.617188 -76.875 53.140625 -77.3125 C 52.660156 -77.75 52.140625 -77.96875 51.578125 -77.96875 L 50.984375 -77.96875 L 50.984375 -79.171875 L 64.0625 -79.171875 L 64.0625 -77.96875 L 63.453125 -77.96875 C 62.816406 -77.96875 62.273438 -77.75 61.828125 -77.3125 C 61.390625 -76.875 60.988281 -76.332031 60.625 -75.6875 C 60.269531 -75.050781 60.007812 -74.375 59.84375 -73.65625 C 59.6875 -72.9375 59.609375 -72.296875 59.609375 -71.734375 L 59.609375 -24.46875 C 59.609375 -19.269531 58.96875 -15.007812 57.6875 -11.6875 C 56.414062 -8.375 54.660156 -5.753906 52.421875 -3.828125 C 50.179688 -1.910156 47.5625 -0.59375 44.5625 0.125 C 41.5625 0.84375 38.382812 1.203125 35.03125 1.203125 C 31.425781 1.203125 28.082031 0.820312 25 0.0625 C 21.925781 -0.695312 19.269531 -2.035156 17.03125 -3.953125 C 14.789062 -5.878906 13.03125 -8.5 11.75 -11.8125 C 10.476562 -15.132812 9.84375 -19.3125 9.84375 -24.34375 L 9.84375 -71.734375 C 9.84375 -72.296875 9.757812 -72.9375 9.59375 -73.65625 C 9.4375 -74.375 9.175781 -75.050781 8.8125 -75.6875 C 8.457031 -76.332031 8.039062 -76.875 7.5625 -77.3125 C 7.082031 -77.75 6.5625 -77.96875 6 -77.96875 L 5.390625 -77.96875 Z M 5.390625 -79.171875 "/></g></g></g><g fill="#000000" fill-opacity="1"><g transform="translate(896.21165, 102.324721)"><g><path d="M 47.625 -76.046875 C 41.707031 -76.046875 36.566406 -74.984375 32.203125 -72.859375 C 27.847656 -70.742188 24.226562 -67.988281 21.34375 -64.59375 C 18.46875 -61.195312 16.328125 -57.378906 14.921875 -53.140625 C 13.523438 -48.898438 12.828125 -44.703125 12.828125 -40.546875 C 12.828125 -35.828125 13.75 -31.207031 15.59375 -26.6875 C 17.4375 -22.164062 19.972656 -18.164062 23.203125 -14.6875 C 26.441406 -11.207031 30.222656 -8.410156 34.546875 -6.296875 C 38.867188 -4.179688 43.546875 -3.125 48.578125 -3.125 C 50.015625 -3.125 51.710938 -3.28125 53.671875 -3.59375 C 55.640625 -3.914062 57.582031 -4.535156 59.5 -5.453125 C 61.414062 -6.378906 63.191406 -7.679688 64.828125 -9.359375 C 66.472656 -11.035156 67.734375 -13.234375 68.609375 -15.953125 L 69.8125 -15.953125 L 69.8125 -2.640625 C 68.613281 -2.640625 67.351562 -2.476562 66.03125 -2.15625 C 64.71875 -1.832031 63.257812 -1.472656 61.65625 -1.078125 C 59.570312 -0.515625 57.269531 0.00390625 54.75 0.484375 C 52.238281 0.960938 49.582031 1.203125 46.78125 1.203125 C 39.820312 1.203125 33.703125 0.00390625 28.421875 -2.390625 C 23.148438 -4.796875 18.753906 -7.914062 15.234375 -11.75 C 11.710938 -15.59375 9.070312 -19.929688 7.3125 -24.765625 C 5.550781 -29.609375 4.671875 -34.507812 4.671875 -39.46875 C 4.671875 -44.425781 5.550781 -49.34375 7.3125 -54.21875 C 9.070312 -59.09375 11.75 -63.46875 15.34375 -67.34375 C 18.945312 -71.226562 23.46875 -74.367188 28.90625 -76.765625 C 34.34375 -79.171875 40.738281 -80.375 48.09375 -80.375 C 50.738281 -80.375 53.117188 -80.128906 55.234375 -79.640625 C 57.359375 -79.160156 59.257812 -78.679688 60.9375 -78.203125 C 62.132812 -77.804688 63.234375 -77.507812 64.234375 -77.3125 C 65.234375 -77.113281 66.210938 -77.015625 67.171875 -77.015625 L 67.171875 -63.6875 L 65.96875 -63.6875 C 65.488281 -66.164062 64.609375 -68.222656 63.328125 -69.859375 C 62.054688 -71.503906 60.5625 -72.765625 58.84375 -73.640625 C 57.125 -74.523438 55.28125 -75.144531 53.3125 -75.5 C 51.351562 -75.863281 49.457031 -76.046875 47.625 -76.046875 Z M 47.625 -76.046875 "/></g></g></g><g fill="#000000" fill-opacity="1"><g transform="translate(973.099578, 102.324721)"><g><path d="M 35.75 -1.203125 L 36.34375 -1.203125 L 36.34375 0 L 19.3125 0 L 19.3125 -1.203125 L 19.90625 -1.203125 C 20.550781 -1.203125 21.113281 -1.441406 21.59375 -1.921875 C 22.070312 -2.398438 22.488281 -2.957031 22.84375 -3.59375 C 23.207031 -4.238281 23.46875 -4.941406 23.625 -5.703125 C 23.789062 -6.460938 23.875 -7.160156 23.875 -7.796875 L 23.875 -74.734375 L 9.953125 -74.734375 C 8.671875 -74.734375 7.550781 -74.453125 6.59375 -73.890625 C 5.632812 -73.328125 4.832031 -72.625 4.1875 -71.78125 C 3.550781 -70.945312 3.070312 -70.03125 2.75 -69.03125 C 2.4375 -68.03125 2.28125 -67.050781 2.28125 -66.09375 L 1.078125 -66.09375 L 1.078125 -79.171875 L 54.9375 -79.171875 L 54.9375 -66.09375 L 53.734375 -66.09375 C 53.734375 -67.050781 53.570312 -68.03125 53.25 -69.03125 C 52.9375 -70.03125 52.457031 -70.945312 51.8125 -71.78125 C 51.175781 -72.625 50.378906 -73.328125 49.421875 -73.890625 C 48.460938 -74.453125 47.34375 -74.734375 46.0625 -74.734375 L 31.90625 -74.734375 L 31.90625 -7.796875 C 31.90625 -7.160156 31.984375 -6.460938 32.140625 -5.703125 C 32.304688 -4.941406 32.566406 -4.238281 32.921875 -3.59375 C 33.285156 -2.957031 33.6875 -2.398438 34.125 -1.921875 C 34.5625 -1.441406 35.101562 -1.203125 35.75 -1.203125 Z M 35.75 -1.203125 "/></g></g></g><g fill="#000000" fill-opacity="1"><g transform="translate(1037.392886, 102.324721)"><g><path d="M 5.875 -79.171875 L 23.03125 -79.171875 L 23.03125 -77.96875 L 22.4375 -77.96875 C 21.875 -77.96875 21.351562 -77.75 20.875 -77.3125 C 20.394531 -76.875 19.992188 -76.351562 19.671875 -75.75 C 19.347656 -75.144531 19.085938 -74.460938 18.890625 -73.703125 C 18.691406 -72.953125 18.59375 -72.296875 18.59375 -71.734375 L 18.59375 -7.796875 C 18.59375 -7.160156 18.671875 -6.460938 18.828125 -5.703125 C 18.992188 -4.941406 19.253906 -4.238281 19.609375 -3.59375 C 19.972656 -2.957031 20.375 -2.398438 20.8125 -1.921875 C 21.25 -1.441406 21.789062 -1.203125 22.4375 -1.203125 L 23.03125 -1.203125 L 23.03125 0 L 5.875 0 L 5.875 -1.203125 L 6.484375 -1.203125 C 7.117188 -1.203125 7.675781 -1.421875 8.15625 -1.859375 C 8.632812 -2.296875 9.050781 -2.851562 9.40625 -3.53125 C 9.769531 -4.21875 10.03125 -4.941406 10.1875 -5.703125 C 10.351562 -6.460938 10.4375 -7.160156 10.4375 -7.796875 L 10.4375 -71.734375 C 10.4375 -72.296875 10.351562 -72.9375 10.1875 -73.65625 C 10.03125 -74.375 9.769531 -75.050781 9.40625 -75.6875 C 9.050781 -76.332031 8.632812 -76.875 8.15625 -77.3125 C 7.675781 -77.75 7.117188 -77.96875 6.484375 -77.96875 L 5.875 -77.96875 Z M 5.875 -79.171875 "/></g></g></g><g fill="#000000" fill-opacity="1"><g transform="translate(1074.697358, 102.324721)"><g><path d="M 45.828125 -80.375 C 52.054688 -80.375 57.648438 -79.269531 62.609375 -77.0625 C 67.566406 -74.863281 71.785156 -71.90625 75.265625 -68.1875 C 78.742188 -64.46875 81.421875 -60.148438 83.296875 -55.234375 C 85.179688 -50.316406 86.125 -45.179688 86.125 -39.828125 C 86.125 -33.828125 85.023438 -28.304688 82.828125 -23.265625 C 80.628906 -18.234375 77.609375 -13.914062 73.765625 -10.3125 C 69.929688 -6.71875 65.472656 -3.898438 60.390625 -1.859375 C 55.316406 0.179688 49.898438 1.203125 44.140625 1.203125 C 37.984375 1.203125 32.445312 0.0820312 27.53125 -2.15625 C 22.613281 -4.394531 18.453125 -7.351562 15.046875 -11.03125 C 11.648438 -14.707031 9.03125 -18.945312 7.1875 -23.75 C 5.351562 -28.550781 4.4375 -33.550781 4.4375 -38.75 C 4.4375 -43.863281 5.351562 -48.921875 7.1875 -53.921875 C 9.03125 -58.921875 11.726562 -63.378906 15.28125 -67.296875 C 18.84375 -71.210938 23.179688 -74.367188 28.296875 -76.765625 C 33.421875 -79.171875 39.265625 -80.375 45.828125 -80.375 Z M 45.703125 -3 C 51.054688 -3.238281 55.753906 -4.457031 59.796875 -6.65625 C 63.835938 -8.851562 67.21875 -11.648438 69.9375 -15.046875 C 72.65625 -18.453125 74.671875 -22.191406 75.984375 -26.265625 C 77.304688 -30.347656 77.96875 -34.390625 77.96875 -38.390625 C 77.96875 -42.785156 77.164062 -47.222656 75.5625 -51.703125 C 73.96875 -56.179688 71.691406 -60.238281 68.734375 -63.875 C 65.773438 -67.507812 62.234375 -70.46875 58.109375 -72.75 C 53.992188 -75.03125 49.378906 -76.171875 44.265625 -76.171875 C 39.304688 -76.171875 34.863281 -75.070312 30.9375 -72.875 C 27.019531 -70.675781 23.679688 -67.851562 20.921875 -64.40625 C 18.171875 -60.96875 16.070312 -57.128906 14.625 -52.890625 C 13.1875 -48.660156 12.46875 -44.503906 12.46875 -40.421875 C 12.46875 -36.023438 13.304688 -31.609375 14.984375 -27.171875 C 16.671875 -22.734375 18.992188 -18.710938 21.953125 -15.109375 C 24.910156 -11.515625 28.40625 -8.597656 32.4375 -6.359375 C 36.476562 -4.117188 40.898438 -3 45.703125 -3 Z M 45.703125 -3 "/></g></g></g><g fill="#000000" fill-opacity="1"><g transform="translate(1174.135976, 102.324721)"><g><path d="M 18 -1.203125 L 18.59375 -1.203125 L 18.59375 0 L 5.28125 0 L 5.28125 -1.203125 L 5.875 -1.203125 C 6.4375 -1.203125 6.976562 -1.441406 7.5 -1.921875 C 8.019531 -2.398438 8.4375 -2.957031 8.75 -3.59375 C 9.070312 -4.238281 9.332031 -4.941406 9.53125 -5.703125 C 9.738281 -6.460938 9.84375 -7.160156 9.84375 -7.796875 L 9.84375 -71.734375 C 9.84375 -72.296875 9.78125 -72.9375 9.65625 -73.65625 C 9.53125 -74.375 9.304688 -75.050781 8.984375 -75.6875 C 8.671875 -76.332031 8.234375 -76.875 7.671875 -77.3125 C 7.117188 -77.75 6.441406 -77.96875 5.640625 -77.96875 L 5.03125 -77.96875 L 5.03125 -79.171875 L 17.15625 -79.171875 L 60.703125 -10.5625 L 60.703125 -71.734375 C 60.703125 -72.296875 60.597656 -72.9375 60.390625 -73.65625 C 60.191406 -74.375 59.910156 -75.050781 59.546875 -75.6875 C 59.191406 -76.332031 58.773438 -76.875 58.296875 -77.3125 C 57.816406 -77.75 57.257812 -77.96875 56.625 -77.96875 L 56.015625 -77.96875 L 56.015625 -79.171875 L 69.453125 -79.171875 L 69.453125 -77.96875 L 68.859375 -77.96875 C 68.210938 -77.96875 67.648438 -77.75 67.171875 -77.3125 C 66.691406 -76.875 66.269531 -76.332031 65.90625 -75.6875 C 65.550781 -75.050781 65.289062 -74.375 65.125 -73.65625 C 64.96875 -72.9375 64.890625 -72.296875 64.890625 -71.734375 L 64.890625 0 L 57.453125 0 L 14.03125 -68.859375 L 14.03125 -7.796875 C 14.03125 -7.160156 14.109375 -6.460938 14.265625 -5.703125 C 14.429688 -4.941406 14.691406 -4.238281 15.046875 -3.59375 C 15.410156 -2.957031 15.832031 -2.398438 16.3125 -1.921875 C 16.789062 -1.441406 17.351562 -1.203125 18 -1.203125 Z M 18 -1.203125 "/></g></g></g></g></g><g transform="matrix(1, 0, 0, 1, 288, 395)"><g clip-path="url(#65ec08d7bc)"><g fill="#000000" fill-opacity="1"><g transform="translate(1.233979, 45.685608)"><g><path d="M 4.375 0 L 4.375 -30.03125 L 16 -30.03125 C 18.894531 -30.03125 21.207031 -29.304688 22.9375 -27.859375 C 24.664062 -26.421875 25.53125 -24.484375 25.53125 -22.046875 C 25.53125 -20.585938 25.1875 -19.300781 24.5 -18.1875 C 23.8125 -17.070312 22.851562 -16.203125 21.625 -15.578125 C 23.164062 -14.941406 24.34375 -14.007812 25.15625 -12.78125 C 25.976562 -11.550781 26.390625 -10.09375 26.390625 -8.40625 C 26.390625 -5.800781 25.507812 -3.75 23.75 -2.25 C 21.988281 -0.75 19.59375 0 16.5625 0 Z M 8.15625 -3.515625 L 16.46875 -3.515625 C 18.414062 -3.515625 19.910156 -3.957031 20.953125 -4.84375 C 22.003906 -5.726562 22.53125 -6.972656 22.53125 -8.578125 C 22.53125 -10.179688 22 -11.414062 20.9375 -12.28125 C 19.875 -13.15625 18.375 -13.59375 16.4375 -13.59375 L 8.15625 -13.59375 Z M 8.15625 -17.03125 L 15.921875 -17.03125 C 17.773438 -17.03125 19.195312 -17.441406 20.1875 -18.265625 C 21.175781 -19.097656 21.671875 -20.257812 21.671875 -21.75 C 21.671875 -23.269531 21.171875 -24.441406 20.171875 -25.265625 C 19.171875 -26.097656 17.753906 -26.515625 15.921875 -26.515625 L 8.15625 -26.515625 Z M 8.15625 -17.03125 "/></g></g></g><g fill="#000000" fill-opacity="1"><g transform="translate(44.13775, 45.685608)"><g><path d="M 15.625 0.515625 C 11.988281 0.515625 9.144531 -0.613281 7.09375 -2.875 C 5.050781 -5.132812 4.03125 -8.253906 4.03125 -12.234375 L 4.03125 -30.03125 L 7.765625 -30.03125 L 7.765625 -12.484375 C 7.765625 -9.421875 8.4375 -7.101562 9.78125 -5.53125 C 11.125 -3.957031 13.070312 -3.171875 15.625 -3.171875 C 20.851562 -3.171875 23.46875 -6.273438 23.46875 -12.484375 L 23.46875 -30.03125 L 27.25 -30.03125 L 27.25 -12.234375 C 27.25 -8.253906 26.21875 -5.132812 24.15625 -2.875 C 22.09375 -0.613281 19.25 0.515625 15.625 0.515625 Z M 15.625 0.515625 "/></g></g></g><g fill="#000000" fill-opacity="1"><g transform="translate(89.701479, 45.685608)"><g><path d="M 4.375 0 L 4.375 -30.03125 L 8.15625 -30.03125 L 8.15625 0 Z M 4.375 0 "/></g></g></g><g fill="#000000" fill-opacity="1"><g transform="translate(116.51687, 45.685608)"><g><path d="M 4.375 0 L 4.375 -30.03125 L 8.15625 -30.03125 L 8.15625 -3.609375 L 22.734375 -3.609375 L 22.734375 0 Z M 4.375 0 "/></g></g></g><g fill="#000000" fill-opacity="1"><g transform="translate(154.87299, 45.685608)"><g><path d="M 4.375 0 L 4.375 -30.03125 L 14.765625 -30.03125 C 17.847656 -30.03125 20.539062 -29.394531 22.84375 -28.125 C 25.144531 -26.851562 26.9375 -25.09375 28.21875 -22.84375 C 29.507812 -20.601562 30.15625 -17.992188 30.15625 -15.015625 C 30.15625 -12.066406 29.507812 -9.460938 28.21875 -7.203125 C 26.9375 -4.941406 25.144531 -3.175781 22.84375 -1.90625 C 20.539062 -0.632812 17.847656 0 14.765625 0 Z M 8.15625 -3.609375 L 14.765625 -3.609375 C 17.046875 -3.609375 19.050781 -4.085938 20.78125 -5.046875 C 22.519531 -6.003906 23.875 -7.335938 24.84375 -9.046875 C 25.8125 -10.765625 26.296875 -12.753906 26.296875 -15.015625 C 26.296875 -17.304688 25.800781 -19.300781 24.8125 -21 C 23.832031 -22.707031 22.46875 -24.039062 20.71875 -25 C 18.976562 -25.957031 16.9375 -26.4375 14.59375 -26.4375 L 8.15625 -26.4375 Z M 8.15625 -3.609375 "/></g></g></g><g fill="#000000" fill-opacity="1"><g transform="translate(200.651186, 45.685608)"><g/></g></g><g fill="#000000" fill-opacity="1"><g transform="translate(225.578884, 45.685608)"><g><path d="M 5.28125 5.828125 L 5.28125 -34.328125 L 8.671875 -34.328125 L 8.671875 5.828125 Z M 5.28125 5.828125 "/></g></g></g><g fill="#000000" fill-opacity="1"><g transform="translate(253.810042, 45.685608)"><g/></g></g><g fill="#000000" fill-opacity="1"><g transform="translate(278.737714, 45.685608)"><g><path d="M 4.375 0 L 4.375 -30.03125 L 8.15625 -30.03125 L 8.15625 0 Z M 4.375 0 "/></g></g></g><g fill="#000000" fill-opacity="1"><g transform="translate(305.553117, 45.685608)"><g><path d="M 4.375 0 L 4.375 -30.03125 L 7.890625 -30.03125 L 19.6875 -12.234375 L 31.40625 -30.03125 L 34.921875 -30.03125 L 34.921875 0 L 31.15625 0 L 31.15625 -22.953125 L 21.203125 -7.984375 L 18.109375 -7.984375 L 8.15625 -23 L 8.15625 0 Z M 4.375 0 "/></g></g></g><g fill="#000000" fill-opacity="1"><g transform="translate(359.139584, 45.685608)"><g><path d="M 4.375 0 L 4.375 -30.03125 L 14.546875 -30.03125 C 16.804688 -30.03125 18.769531 -29.613281 20.4375 -28.78125 C 22.113281 -27.957031 23.410156 -26.796875 24.328125 -25.296875 C 25.242188 -23.796875 25.703125 -22.015625 25.703125 -19.953125 C 25.703125 -17.890625 25.242188 -16.109375 24.328125 -14.609375 C 23.410156 -13.109375 22.113281 -11.941406 20.4375 -11.109375 C 18.769531 -10.285156 16.804688 -9.875 14.546875 -9.875 L 8.15625 -9.875 L 8.15625 0 Z M 8.15625 -13.390625 L 14.453125 -13.390625 C 19.378906 -13.390625 21.84375 -15.5625 21.84375 -19.90625 C 21.84375 -24.257812 19.378906 -26.4375 14.453125 -26.4375 L 8.15625 -26.4375 Z M 8.15625 -13.390625 "/></g></g></g><g fill="#000000" fill-opacity="1"><g transform="translate(400.842105, 45.685608)"><g><path d="M 4.375 0 L 4.375 -30.03125 L 15.828125 -30.03125 C 17.921875 -30.03125 19.738281 -29.632812 21.28125 -28.84375 C 22.820312 -28.0625 24.019531 -26.957031 24.875 -25.53125 C 25.738281 -24.101562 26.171875 -22.382812 26.171875 -20.375 C 26.171875 -17.945312 25.539062 -15.9375 24.28125 -14.34375 C 23.019531 -12.757812 21.289062 -11.695312 19.09375 -11.15625 L 26.640625 0 L 22.09375 0 L 14.765625 -10.765625 L 8.15625 -10.765625 L 8.15625 0 Z M 8.15625 -14.375 L 15.40625 -14.375 C 17.601562 -14.375 19.300781 -14.894531 20.5 -15.9375 C 21.707031 -16.976562 22.3125 -18.457031 22.3125 -20.375 C 22.3125 -22.289062 21.707031 -23.78125 20.5 -24.84375 C 19.300781 -25.90625 17.601562 -26.4375 15.40625 -26.4375 L 8.15625 -26.4375 Z M 8.15625 -14.375 "/></g></g></g><g fill="#000000" fill-opacity="1"><g transform="translate(443.960357, 45.685608)"><g><path d="M 18.015625 0.5625 C 14.984375 0.5625 12.296875 -0.101562 9.953125 -1.4375 C 7.609375 -2.769531 5.773438 -4.609375 4.453125 -6.953125 C 3.140625 -9.296875 2.484375 -11.984375 2.484375 -15.015625 C 2.484375 -18.078125 3.140625 -20.773438 4.453125 -23.109375 C 5.773438 -25.441406 7.609375 -27.269531 9.953125 -28.59375 C 12.296875 -29.925781 14.984375 -30.59375 18.015625 -30.59375 C 21.078125 -30.59375 23.773438 -29.925781 26.109375 -28.59375 C 28.441406 -27.269531 30.269531 -25.441406 31.59375 -23.109375 C 32.925781 -20.773438 33.59375 -18.078125 33.59375 -15.015625 C 33.59375 -11.984375 32.925781 -9.296875 31.59375 -6.953125 C 30.269531 -4.609375 28.441406 -2.769531 26.109375 -1.4375 C 23.773438 -0.101562 21.078125 0.5625 18.015625 0.5625 Z M 6.34375 -15.015625 C 6.34375 -12.703125 6.835938 -10.65625 7.828125 -8.875 C 8.816406 -7.101562 10.191406 -5.71875 11.953125 -4.71875 C 13.710938 -3.71875 15.734375 -3.21875 18.015625 -3.21875 C 20.335938 -3.21875 22.367188 -3.71875 24.109375 -4.71875 C 25.859375 -5.71875 27.222656 -7.101562 28.203125 -8.875 C 29.191406 -10.65625 29.6875 -12.703125 29.6875 -15.015625 C 29.6875 -17.359375 29.191406 -19.410156 28.203125 -21.171875 C 27.222656 -22.929688 25.859375 -24.3125 24.109375 -25.3125 C 22.367188 -26.3125 20.335938 -26.8125 18.015625 -26.8125 C 15.734375 -26.8125 13.710938 -26.3125 11.953125 -25.3125 C 10.191406 -24.3125 8.816406 -22.929688 7.828125 -21.171875 C 6.835938 -19.410156 6.34375 -17.359375 6.34375 -15.015625 Z M 6.34375 -15.015625 "/></g></g></g><g fill="#000000" fill-opacity="1"><g transform="translate(493.127822, 45.685608)"><g><path d="M 12.703125 0 L 0.734375 -30.03125 L 4.765625 -30.03125 L 9.734375 -17.375 L 14.453125 -5.453125 L 19.140625 -17.375 L 24.15625 -30.03125 L 28.140625 -30.03125 L 16.21875 0 Z M 12.703125 0 "/></g></g></g><g fill="#000000" fill-opacity="1"><g transform="translate(536.289039, 45.685608)"><g><path d="M 4.375 0 L 4.375 -30.03125 L 22.609375 -30.03125 L 22.609375 -26.515625 L 8.15625 -26.515625 L 8.15625 -17.03125 L 21.53125 -17.03125 L 21.53125 -13.5625 L 8.15625 -13.5625 L 8.15625 -3.515625 L 23.078125 -3.515625 L 23.078125 0 Z M 4.375 0 "/></g></g></g><g fill="#000000" fill-opacity="1"><g transform="translate(576.447033, 45.685608)"><g/></g></g><g fill="#000000" fill-opacity="1"><g transform="translate(601.374731, 45.685608)"><g><path d="M 5.28125 5.828125 L 5.28125 -34.328125 L 8.671875 -34.328125 L 8.671875 5.828125 Z M 5.28125 5.828125 "/></g></g></g><g fill="#000000" fill-opacity="1"><g transform="translate(629.605913, 45.685608)"><g/></g></g><g fill="#000000" fill-opacity="1"><g transform="translate(654.533611, 45.685608)"><g><path d="M 4.375 0 L 4.375 -30.03125 L 7.890625 -30.03125 L 19.6875 -12.234375 L 31.40625 -30.03125 L 34.921875 -30.03125 L 34.921875 0 L 31.15625 0 L 31.15625 -22.953125 L 21.203125 -7.984375 L 18.109375 -7.984375 L 8.15625 -23 L 8.15625 0 Z M 4.375 0 "/></g></g></g><g fill="#000000" fill-opacity="1"><g transform="translate(708.120077, 45.685608)"><g><path d="M 0.734375 0 L 13.09375 -30.03125 L 16.609375 -30.03125 L 28.96875 0 L 24.96875 0 L 22.140625 -6.828125 L 7.515625 -6.828125 L 4.765625 0 Z M 8.96875 -10.34375 L 20.71875 -10.34375 L 14.84375 -24.75 Z M 8.96875 -10.34375 "/></g></g></g><g fill="#000000" fill-opacity="1"><g transform="translate(752.096399, 45.685608)"><g><path d="M 4.375 0 L 4.375 -30.03125 L 8.15625 -30.03125 L 8.15625 0 Z M 4.375 0 "/></g></g></g><g fill="#000000" fill-opacity="1"><g transform="translate(778.911803, 45.685608)"><g><path d="M 4.375 0 L 4.375 -30.03125 L 7.9375 -30.03125 L 24.546875 -6.515625 L 24.546875 -30.03125 L 28.234375 -30.03125 L 28.234375 0 L 24.71875 0 L 8.109375 -23.515625 L 8.109375 0 Z M 4.375 0 "/></g></g></g><g fill="#000000" fill-opacity="1"><g transform="translate(825.805516, 45.685608)"><g><path d="M 11.625 0 L 11.625 -26.4375 L 1.453125 -26.4375 L 1.453125 -30.03125 L 25.53125 -30.03125 L 25.53125 -26.4375 L 15.40625 -26.4375 L 15.40625 0 Z M 11.625 0 "/></g></g></g><g fill="#000000" fill-opacity="1"><g transform="translate(863.946958, 45.685608)"><g><path d="M 0.734375 0 L 13.09375 -30.03125 L 16.609375 -30.03125 L 28.96875 0 L 24.96875 0 L 22.140625 -6.828125 L 7.515625 -6.828125 L 4.765625 0 Z M 8.96875 -10.34375 L 20.71875 -10.34375 L 14.84375 -24.75 Z M 8.96875 -10.34375 "/></g></g></g><g fill="#000000" fill-opacity="1"><g transform="translate(907.923281, 45.685608)"><g><path d="M 4.375 0 L 4.375 -30.03125 L 8.15625 -30.03125 L 8.15625 0 Z M 4.375 0 "/></g></g></g><g fill="#000000" fill-opacity="1"><g transform="translate(934.738684, 45.685608)"><g><path d="M 4.375 0 L 4.375 -30.03125 L 7.9375 -30.03125 L 24.546875 -6.515625 L 24.546875 -30.03125 L 28.234375 -30.03125 L 28.234375 0 L 24.71875 0 L 8.109375 -23.515625 L 8.109375 0 Z M 4.375 0 "/></g></g></g></g></g></svg>